<svg xmlns="http://www.w3.org/2000/svg" width="851" height="315" viewBox="0 0 851 315">
  <defs>
    <radialGradient id="g1" cx="0.18" cy="0.3" r="0.95">
      <stop offset="0" stop-color="#10b981" stop-opacity="0.42"/>
      <stop offset="1" stop-color="#071210" stop-opacity="0"/>
    </radialGradient>
    <radialGradient id="g2" cx="0.92" cy="0.1" r="0.7">
      <stop offset="0" stop-color="#84cc16" stop-opacity="0.24"/>
      <stop offset="1" stop-color="#071210" stop-opacity="0"/>
    </radialGradient>
    <linearGradient id="gold" x1="0" y1="0" x2="1" y2="1">
      <stop offset="0" stop-color="#fde047"/>
      <stop offset="0.5" stop-color="#eab308"/>
      <stop offset="1" stop-color="#a16207"/>
    </linearGradient>
    <linearGradient id="word" x1="0" y1="0" x2="1" y2="0">
      <stop offset="0" stop-color="#fde047"/>
      <stop offset="1" stop-color="#eab308"/>
    </linearGradient>
  </defs>
  <rect width="851" height="315" fill="#071210"/>
  <rect width="851" height="315" fill="url(#g1)"/>
  <rect width="851" height="315" fill="url(#g2)"/>
  <!-- líneas de pista -->
  <g stroke="#2dd4bf" stroke-opacity="0.22">
    <line x1="0" y1="258" x2="851" y2="258"/>
    <line x1="0" y1="57"  x2="851" y2="57"/>
    <line x1="600" y1="57" x2="600" y2="258" stroke-opacity="0.12"/>
  </g>
  <!-- Pala -->
  <g transform="translate(98,158) scale(1.85)">
    <path d="M32 13c10.5 0 19 7.6 19 17.6 0 14.4-8 23.4-19 28.4-11-5-19-14-19-28.4C13 20.6 21.5 13 32 13z" fill="url(#gold)"/>
    <circle cx="23" cy="22" r="2" fill="rgba(0,0,0,0.18)"/>
    <circle cx="30" cy="19" r="2" fill="rgba(0,0,0,0.18)"/>
    <circle cx="37" cy="22" r="2" fill="rgba(0,0,0,0.18)"/>
    <circle cx="26" cy="28" r="2" fill="rgba(0,0,0,0.18)"/>
    <circle cx="33" cy="28" r="2" fill="rgba(0,0,0,0.18)"/>
    <circle cx="40" cy="28" r="2" fill="rgba(0,0,0,0.18)"/>
    <rect x="29.4" y="44" width="5.2" height="12" rx="2.2" fill="url(#gold)"/>
  </g>
  <!-- Wordmark -->
  <text x="210" y="120" font-family="Inter, sans-serif" font-size="44" font-weight="800" fill="#f0fdf4" letter-spacing="0.5">PADEL </text>
  <text x="210" y="172" font-family="Inter, sans-serif" font-size="44" font-weight="800" fill="url(#word)" letter-spacing="0.5">ORGANIZERS</text>
  <text x="214" y="214" font-family="Inter, sans-serif" font-size="13" font-weight="700" fill="#fde047" letter-spacing="4">COURTMANAGER® AI</text>
  <!-- URL -->
  <text x="730" y="285" font-family="Inter, sans-serif" font-size="17" font-weight="700" fill="#2dd4bf" text-anchor="end">padelorganizers.vercel.app</text>
</svg>